<svg xmlns="http://www.w3.org/2000/svg" width="168" height="66" viewBox="0 0 168 66"><path fill="#FFF" d="M468.195,441.008 L458.201,441.008 L454.211,442.984 L454.211,451.002 L452.197,454.992 L454.211,454.992 L454.211,468.976 L458.201,467 L458.201,454.992 L466.181,454.992 L466.181,451.002 L458.201,451.002 L458.201,444.998 L466.181,444.998 L468.195,441.008 Z M450.183,471.066 L450.183,444.998 L446.193,447.012 L446.193,451.002 L444.179,454.992 L446.193,454.992 L446.193,473.042 L450.183,471.066 Z M487.689,441.008 L474.921,440.97 L473.325,444.238 L469.715,446.024 L469.715,467 L482.483,467 L484.079,463.77 L487.689,461.946 L487.689,441.008 Z M483.699,463.39 L473.705,463.39 L473.705,455.79 L475.567,452.522 L473.705,451.458 L473.705,444.618 L483.699,444.618 L483.699,451.306 L482.103,454.004 L483.699,454.916 L483.699,463.39 Z M510.451,465.746 L503.687,452.104 L507.449,450.242 L507.449,441.008 L496.391,441.008 L492.401,442.946 L492.401,451.192 L490.805,454.004 L492.401,454.954 L492.401,467 L496.391,467 L496.391,444.618 L503.421,444.618 L503.421,451.952 L500.001,453.662 L506.879,467.532 L510.451,465.746 Z M531.313,448.152 L522.915,448.152 L521.281,451.8 L527.323,451.8 L527.323,463.39 L517.329,463.39 L517.329,444.618 L527.513,444.618 L529.299,441.008 L518.545,441.008 L516.949,444.238 L513.339,446.062 L513.339,467 L526.145,467 L527.703,463.77 L531.313,461.946 L531.313,448.152 Z M550.047,441.008 L540.053,441.008 L536.063,442.984 L536.063,451.382 L534.087,455.372 L536.063,455.372 L536.063,467 L548.071,467 L549.895,463.39 L540.053,463.39 L540.053,455.372 L548.071,455.372 L548.071,451.762 L540.053,451.762 L540.053,444.618 L548.261,444.618 L550.047,441.008 Z M578.5,455.25 L564,455.25 L567.5,460.5 L563.5,460.5 L560,455.25 L554,455.25 L554,451.75 L569,451.75 L571.75,448.5 L592.75,448.5 L589.25,455.25 L581.75,455.25 L578.25,463.5 L583,463.5 L581.5,467 L560.5,467 L562,463.5 L566,463.5 L567.5,460.5 L571.75,460.5 L570.25,463.5 L575,463.5 L578.5,455.25 Z M562,436.5 L566,438.5 L566,441 L581.5,441 L583,444.5 L566,444.5 L566,449 L559,449 L559,444.5 L555.5,444.5 L557,441 L559,441 L559,436.5 L562,436.5 Z M596,451 L601,451 L601,455 L594,455 L596,451 Z M433,451 L442,451 L440,455 L433,455 L433,451 Z M587,408 L587,428 L581,428 L581,408 L587,408 Z M473,422 L473,428 L468,428 L468,426 L473,422 Z M601,408 L601,428 L595,428 L595,408 L601,408 Z M453,422 L458,426 L458,428 L453,428 L453,422 Z M569,422 L569,426 C569,427.104569 568.104569,428 567,428 L551,428 C549.895431,428 549,427.104569 549,426 L549,422 L569,422 Z M473,412 L473,418 L466,418 L466,428 L460,428 L460,418 L453,418 L453,412 L473,412 Z M537,408 L537,423 L531,417 L530,417 L530,421 L537,428 L517,428 L524,421 L524,417 L523,417 L517,423 L517,408 L537,408 Z M497.308344,408 C499.982901,408 500.952759,408.278477 501.930537,408.801398 C502.908315,409.324319 503.675681,410.091685 504.198602,411.069463 C504.721523,412.047241 505,413.017099 505,415.691656 L505,420.308344 L504.994671,420.918385 C504.953879,423.138129 504.679689,424.030982 504.198602,424.930537 C503.675681,425.908315 502.908315,426.675681 501.930537,427.198602 C500.952759,427.721523 499.982901,428 497.308344,428 L492.691656,428 C490.017099,428 489.047241,427.721523 488.069463,427.198602 C487.091685,426.675681 486.324319,425.908315 485.801398,424.930537 C485.299394,423.99187 485.022669,423.060502 485.001335,420.621218 L485,415.691656 C485,413.017099 485.278477,412.047241 485.801398,411.069463 C486.324319,410.091685 487.091685,409.324319 488.069463,408.801398 C489.00813,408.299394 489.939498,408.022669 492.378782,408.001335 L497.308344,408 Z M594,417 L594,421 L591,424 L588,421 L588,417 L591,420 L594,417 Z M492.845828,412 C491.50855,412 491.02362,412.139238 490.534731,412.400699 C490.045843,412.66216 489.66216,413.045843 489.400699,413.534731 L489.308414,413.719552 C489.121019,414.126841 489.015715,414.602178 489.001628,415.604868 L489,420.154172 C489,421.49145 489.139238,421.97638 489.400699,422.465269 C489.66216,422.954157 490.045843,423.33784 490.534731,423.599301 L490.719552,423.691586 C491.158171,423.893396 491.675709,424 492.845828,424 L497.154172,424 C498.49145,424 498.97638,423.860762 499.465269,423.599301 C499.954157,423.33784 500.33784,422.954157 500.599301,422.465269 L500.691586,422.280448 C500.893396,421.841829 501,421.324291 501,420.154172 L501,415.845828 C501,414.50855 500.860762,414.02362 500.599301,413.534731 C500.33784,413.045843 499.954157,412.66216 499.465269,412.400699 L499.280448,412.308414 C498.873159,412.121019 498.397822,412.015715 497.395132,412.001628 L492.845828,412 Z M496.436115,414 C497.327634,414 497.65092,414.092826 497.976846,414.267133 C498.302772,414.44144 498.55856,414.697228 498.732867,415.023154 C498.907174,415.34908 499,415.672366 499,416.563885 L499,419.436115 C499,420.327634 498.907174,420.65092 498.732867,420.976846 C498.55856,421.302772 498.302772,421.55856 497.976846,421.732867 C497.65092,421.907174 497.327634,422 496.436115,422 L493.563885,422 C492.672366,422 492.34908,421.907174 492.023154,421.732867 C491.697228,421.55856 491.44144,421.302772 491.267133,420.976846 C491.106234,420.675991 491.014763,420.377386 491.001643,419.632023 L491,416.563885 C491,415.672366 491.092826,415.34908 491.267133,415.023154 C491.44144,414.697228 491.697228,414.44144 492.023154,414.267133 C492.324009,414.106234 492.622614,414.014763 493.367977,414.001643 L496.436115,414 Z M563,416 L563,420 L549,420 L549,416 L563,416 Z M594,408 L594,415 L591,418 L588,415 L588,408 L591,411 L594,408 Z M567,408 C568.104569,408 569,408.895431 569,410 L569,414 L549,414 L549,410 C549,408.895431 549.895431,408 551,408 L567,408 Z M473,408 L473,410 L453,410 L453,408 L473,408 Z M443,425 L443,427 L441,427 L441,425 L443,425 Z M435,425 L435,427 L433,427 L433,425 L435,425 Z M438,411 L442,414 L442,422 L438,425 L434,422 L434,414 L438,411 Z M435,409 L435,411 L433,411 L433,409 L435,409 Z M443,409 L443,411 L441,411 L441,409 L443,409 Z" transform="translate(-433 -408)"/></svg>