<svg xmlns="http://www.w3.org/2000/svg" width="182" height="78" viewBox="0 0 182 78"><path fill="#FFF" d="M376.195,177.008 L366.201,177.008 L362.211,178.984 L362.211,187.002 L360.197,190.992 L362.211,190.992 L362.211,204.976 L366.201,203 L366.201,190.992 L374.181,190.992 L374.181,187.002 L366.201,187.002 L366.201,180.998 L374.181,180.998 L376.195,177.008 Z M358.183,207.066 L358.183,180.998 L354.193,183.012 L354.193,187.002 L352.179,190.992 L354.193,190.992 L354.193,209.042 L358.183,207.066 Z M395.689,177.008 L382.921,176.97 L381.325,180.238 L377.715,182.024 L377.715,203 L390.483,203 L392.079,199.77 L395.689,197.946 L395.689,177.008 Z M391.699,199.39 L381.705,199.39 L381.705,191.79 L383.567,188.522 L381.705,187.458 L381.705,180.618 L391.699,180.618 L391.699,187.306 L390.103,190.004 L391.699,190.916 L391.699,199.39 Z M418.451,201.746 L411.687,188.104 L415.449,186.242 L415.449,177.008 L404.391,177.008 L400.401,178.946 L400.401,187.192 L398.805,190.004 L400.401,190.954 L400.401,203 L404.391,203 L404.391,180.618 L411.421,180.618 L411.421,187.952 L408.001,189.662 L414.879,203.532 L418.451,201.746 Z M439.313,184.152 L430.915,184.152 L429.281,187.8 L435.323,187.8 L435.323,199.39 L425.329,199.39 L425.329,180.618 L435.513,180.618 L437.299,177.008 L426.545,177.008 L424.949,180.238 L421.339,182.062 L421.339,203 L434.145,203 L435.703,199.77 L439.313,197.946 L439.313,184.152 Z M458.047,177.008 L448.053,177.008 L444.063,178.984 L444.063,187.382 L442.087,191.372 L444.063,191.372 L444.063,203 L456.071,203 L457.895,199.39 L448.053,199.39 L448.053,191.372 L456.071,191.372 L456.071,187.762 L448.053,187.762 L448.053,180.618 L456.261,180.618 L458.047,177.008 Z M486.5,191.25 L472,191.25 L475.5,196.5 L471.5,196.5 L468,191.25 L462,191.25 L462,187.75 L477,187.75 L479.75,184.5 L500.75,184.5 L497.25,191.25 L489.75,191.25 L486.25,199.5 L491,199.5 L489.5,203 L468.5,203 L470,199.5 L474,199.5 L475.5,196.5 L479.75,196.5 L478.25,199.5 L483,199.5 L486.5,191.25 Z M470,172.5 L474,174.5 L474,177 L489.5,177 L491,180.5 L474,180.5 L474,185 L467,185 L467,180.5 L463.5,180.5 L465,177 L467,177 L467,172.5 L470,172.5 Z M504,187 L517,187 L517,191 L502,191 L504,187 Z M335,187 L350,187 L348,191 L335,191 L335,187 Z M351,132 C352.537128,132 353.939252,132.578022 355.000869,133.528565 C356.061629,132.577659 357.463355,132 359,132 L383,132 C384.537128,132 385.939252,132.578022 387.000869,133.528565 C388.061629,132.577659 389.463355,132 391,132 L415,132 C416.537128,132 417.939252,132.578022 419.000869,133.528565 C420.061629,132.577659 421.463355,132 423,132 L447,132 C448.537128,132 449.939252,132.578022 451.000869,133.528565 C452.061629,132.577659 453.463355,132 455,132 L479,132 C480.537128,132 481.939252,132.578022 483.000869,133.528565 C484.061629,132.577659 485.463355,132 487,132 L511,132 C514.313708,132 517,134.686292 517,138 L517,162 C517,165.313708 514.313708,168 511,168 L487,168 C485.463355,168 484.061629,167.422341 483.000132,166.472331 C481.939252,167.421978 480.537128,168 479,168 L455,168 C453.463355,168 452.061629,167.422341 451.000132,166.472331 C449.939252,167.421978 448.537128,168 447,168 L423,168 C421.463355,168 420.061629,167.422341 419.000132,166.472331 C417.939252,167.421978 416.537128,168 415,168 L391,168 C389.463355,168 388.061629,167.422341 387.000132,166.472331 C385.939252,167.421978 384.537128,168 383,168 L359,168 C357.463355,168 356.061629,167.422341 355.000132,166.472331 C353.939252,167.421978 352.537128,168 351,168 L341,168 C337.686292,168 335,165.313708 335,162 L335,138 C335,134.686292 337.686292,132 341,132 L351,132 Z M447,136 L423,136 C421.895431,136 421,136.895431 421,138 L421,162 C421,163.104569 421.895431,164 423,164 L447,164 C448.104569,164 449,163.104569 449,162 L449,138 C449,136.895431 448.104569,136 447,136 Z M415,136 L391,136 C389.895431,136 389,136.895431 389,138 L389,162 C389,163.104569 389.895431,164 391,164 L415,164 C416.104569,164 417,163.104569 417,162 L417,138 C417,136.895431 416.104569,136 415,136 Z M351,136 L341,136 C339.895431,136 339,136.895431 339,138 L339,162 C339,163.104569 339.895431,164 341,164 L351,164 C352.104569,164 353,163.104569 353,162 L353,138 C353,136.895431 352.104569,136 351,136 Z M383,136 L359,136 C357.895431,136 357,136.895431 357,138 L357,162 C357,163.104569 357.895431,164 359,164 L383,164 C384.104569,164 385,163.104569 385,162 L385,138 C385,136.895431 384.104569,136 383,136 Z M479,136 L455,136 C453.895431,136 453,136.895431 453,138 L453,162 C453,163.104569 453.895431,164 455,164 L479,164 C480.104569,164 481,163.104569 481,162 L481,138 C481,136.895431 480.104569,136 479,136 Z M511,136 L487,136 C485.895431,136 485,136.895431 485,138 L485,162 C485,163.104569 485.895431,164 487,164 L511,164 C512.104569,164 513,163.104569 513,162 L513,138 C513,136.895431 512.104569,136 511,136 Z M495,140 L495,160 L489,160 L489,140 L495,140 Z M361,154 L366,158 L366,160 L361,160 L361,154 Z M381,154 L381,160 L376,160 L376,158 L381,154 Z M509,140 L509,160 L503,160 L503,140 L509,140 Z M477,154 L477,158 C477,159.104569 476.104569,160 475,160 L459,160 C457.895431,160 457,159.104569 457,158 L457,154 L477,154 Z M381,144 L381,150 L374,150 L374,160 L368,160 L368,150 L361,150 L361,144 L381,144 Z M445,140 L445,155 L439,149 L438,149 L438,153 L445,160 L425,160 L432,153 L432,149 L431,149 L425,155 L425,140 L445,140 Z M405.308344,140 C407.982901,140 408.952759,140.278477 409.930537,140.801398 C410.908315,141.324319 411.675681,142.091685 412.198602,143.069463 C412.721523,144.047241 413,145.017099 413,147.691656 L413,152.308344 L412.994671,152.918385 C412.953879,155.138129 412.679689,156.030982 412.198602,156.930537 C411.675681,157.908315 410.908315,158.675681 409.930537,159.198602 C408.952759,159.721523 407.982901,160 405.308344,160 L400.691656,160 C398.017099,160 397.047241,159.721523 396.069463,159.198602 C395.091685,158.675681 394.324319,157.908315 393.801398,156.930537 C393.299394,155.99187 393.022669,155.060502 393.001335,152.621218 L393,147.691656 C393,145.017099 393.278477,144.047241 393.801398,143.069463 C394.324319,142.091685 395.091685,141.324319 396.069463,140.801398 C397.00813,140.299394 397.939498,140.022669 400.378782,140.001335 L405.308344,140 Z M351,157 L351,159 L349,159 L349,157 L351,157 Z M343,157 L343,159 L341,159 L341,157 L343,157 Z M346,143 L350,146 L350,154 L346,157 L342,154 L342,146 L346,143 Z M502,149 L502,153 L499,156 L496,153 L496,149 L499,152 L502,149 Z M400.845828,144 C399.50855,144 399.02362,144.139238 398.534731,144.400699 C398.045843,144.66216 397.66216,145.045843 397.400699,145.534731 L397.308414,145.719552 C397.121019,146.126841 397.015715,146.602178 397.001628,147.604868 L397,152.154172 C397,153.49145 397.139238,153.97638 397.400699,154.465269 C397.66216,154.954157 398.045843,155.33784 398.534731,155.599301 L398.719552,155.691586 C399.158171,155.893396 399.675709,156 400.845828,156 L405.154172,156 C406.49145,156 406.97638,155.860762 407.465269,155.599301 C407.954157,155.33784 408.33784,154.954157 408.599301,154.465269 L408.691586,154.280448 C408.893396,153.841829 409,153.324291 409,152.154172 L409,147.845828 C409,146.50855 408.860762,146.02362 408.599301,145.534731 C408.33784,145.045843 407.954157,144.66216 407.465269,144.400699 L407.280448,144.308414 C406.873159,144.121019 406.397822,144.015715 405.395132,144.001628 L400.845828,144 Z M404.436115,146 C405.327634,146 405.65092,146.092826 405.976846,146.267133 C406.302772,146.44144 406.55856,146.697228 406.732867,147.023154 C406.907174,147.34908 407,147.672366 407,148.563885 L407,151.436115 C407,152.327634 406.907174,152.65092 406.732867,152.976846 C406.55856,153.302772 406.302772,153.55856 405.976846,153.732867 C405.65092,153.907174 405.327634,154 404.436115,154 L401.563885,154 C400.672366,154 400.34908,153.907174 400.023154,153.732867 C399.697228,153.55856 399.44144,153.302772 399.267133,152.976846 C399.106234,152.675991 399.014763,152.377386 399.001643,151.632023 L399,148.563885 C399,147.672366 399.092826,147.34908 399.267133,147.023154 C399.44144,146.697228 399.697228,146.44144 400.023154,146.267133 C400.324009,146.106234 400.622614,146.014763 401.367977,146.001643 L404.436115,146 Z M471,148 L471,152 L457,152 L457,148 L471,148 Z M502,140 L502,147 L499,150 L496,147 L496,140 L499,143 L502,140 Z M475,140 C476.104569,140 477,140.895431 477,142 L477,146 L457,146 L457,142 C457,140.895431 457.895431,140 459,140 L475,140 Z M343,141 L343,143 L341,143 L341,141 L343,141 Z M351,141 L351,143 L349,143 L349,141 L351,141 Z M381,140 L381,142 L361,142 L361,140 L381,140 Z" transform="translate(-335 -132)"/></svg>