<svg xmlns="http://www.w3.org/2000/svg" width="39" height="44" viewBox="0 0 39 44"><path d="M701.75,69.5 L698.25,76.25 L690.75,76.25 L687.25,84.5 L692,84.5 L690.5,88 L669.5,88 L671,84.5 L675,84.5 L676.5,81.5 L672.5,81.5 L669,76.25 L663,76.25 L663,72.75 L678,72.75 L680.75,69.5 L701.75,69.5 Z M687.5,76.25 L673,76.25 L676.5,81.5 L680.75,81.5 L679.25,84.5 L684,84.5 L687.5,76.25 Z M671,57.5 L675,59.5 L675,62 L690.5,62 L692,65.5 L675,65.5 L675,70 L668,70 L668,65.5 L664.5,65.5 L666,62 L668,62 L668,57.5 L671,57.5 Z M682,44 L686,47 L686,55 L682,58 L678,55 L678,47 L682,44 Z" transform="translate(-663 -44)"/></svg>