<svg xmlns="http://www.w3.org/2000/svg" width="39" height="44" viewBox="0 0 39 44"><path fill="#FFF" d="M379.75,69.5 L376.25,76.25 L368.75,76.25 L365.25,84.5 L370,84.5 L368.5,88 L347.5,88 L349,84.5 L353,84.5 L354.5,81.5 L350.5,81.5 L347,76.25 L341,76.25 L341,72.75 L356,72.75 L358.75,69.5 L379.75,69.5 Z M365.5,76.25 L351,76.25 L354.5,81.5 L358.75,81.5 L357.25,84.5 L362,84.5 L365.5,76.25 Z M349,57.5 L353,59.5 L353,62 L368.5,62 L370,65.5 L353,65.5 L353,70 L346,70 L346,65.5 L342.5,65.5 L344,62 L346,62 L346,57.5 L349,57.5 Z M360,44 L364,47 L364,55 L360,58 L356,55 L356,47 L360,44 Z" transform="translate(-341 -44)"/></svg>