<svg xmlns="http://www.w3.org/2000/svg" width="182" height="78" viewBox="0 0 182 78"><path d="M676.195,185.008 L666.201,185.008 L662.211,186.984 L662.211,195.002 L660.197,198.992 L662.211,198.992 L662.211,212.976 L666.201,211 L666.201,198.992 L674.181,198.992 L674.181,195.002 L666.201,195.002 L666.201,188.998 L674.181,188.998 L676.195,185.008 Z M658.183,215.066 L658.183,188.998 L654.193,191.012 L654.193,195.002 L652.179,198.992 L654.193,198.992 L654.193,217.042 L658.183,215.066 Z M695.689,185.008 L682.921,184.97 L681.325,188.238 L677.715,190.024 L677.715,211 L690.483,211 L692.079,207.77 L695.689,205.946 L695.689,185.008 Z M691.699,207.39 L681.705,207.39 L681.705,199.79 L683.567,196.522 L681.705,195.458 L681.705,188.618 L691.699,188.618 L691.699,195.306 L690.103,198.004 L691.699,198.916 L691.699,207.39 Z M718.451,209.746 L711.687,196.104 L715.449,194.242 L715.449,185.008 L704.391,185.008 L700.401,186.946 L700.401,195.192 L698.805,198.004 L700.401,198.954 L700.401,211 L704.391,211 L704.391,188.618 L711.421,188.618 L711.421,195.952 L708.001,197.662 L714.879,211.532 L718.451,209.746 Z M739.313,192.152 L730.915,192.152 L729.281,195.8 L735.323,195.8 L735.323,207.39 L725.329,207.39 L725.329,188.618 L735.513,188.618 L737.299,185.008 L726.545,185.008 L724.949,188.238 L721.339,190.062 L721.339,211 L734.145,211 L735.703,207.77 L739.313,205.946 L739.313,192.152 Z M758.047,185.008 L748.053,185.008 L744.063,186.984 L744.063,195.382 L742.087,199.372 L744.063,199.372 L744.063,211 L756.071,211 L757.895,207.39 L748.053,207.39 L748.053,199.372 L756.071,199.372 L756.071,195.762 L748.053,195.762 L748.053,188.618 L756.261,188.618 L758.047,185.008 Z M786.5,199.25 L772,199.25 L775.5,204.5 L771.5,204.5 L768,199.25 L762,199.25 L762,195.75 L777,195.75 L779.75,192.5 L800.75,192.5 L797.25,199.25 L789.75,199.25 L786.25,207.5 L791,207.5 L789.5,211 L768.5,211 L770,207.5 L774,207.5 L775.5,204.5 L779.75,204.5 L778.25,207.5 L783,207.5 L786.5,199.25 Z M770,180.5 L774,182.5 L774,185 L789.5,185 L791,188.5 L774,188.5 L774,193 L767,193 L767,188.5 L763.5,188.5 L765,185 L767,185 L767,180.5 L770,180.5 Z M804,195 L817,195 L817,199 L802,199 L804,195 Z M635,195 L650,195 L648,199 L635,199 L635,195 Z M651,140 C652.537128,140 653.939252,140.578022 655.000869,141.528565 C656.061629,140.577659 657.463355,140 659,140 L683,140 C684.537128,140 685.939252,140.578022 687.000869,141.528565 C688.061629,140.577659 689.463355,140 691,140 L715,140 C716.537128,140 717.939252,140.578022 719.000869,141.528565 C720.061629,140.577659 721.463355,140 723,140 L747,140 C748.537128,140 749.939252,140.578022 751.000869,141.528565 C752.061629,140.577659 753.463355,140 755,140 L779,140 C780.537128,140 781.939252,140.578022 783.000869,141.528565 C784.061629,140.577659 785.463355,140 787,140 L811,140 C814.313708,140 817,142.686292 817,146 L817,170 C817,173.313708 814.313708,176 811,176 L787,176 C785.463355,176 784.061629,175.422341 783.000132,174.472331 C781.939252,175.421978 780.537128,176 779,176 L755,176 C753.463355,176 752.061629,175.422341 751.000132,174.472331 C749.939252,175.421978 748.537128,176 747,176 L723,176 C721.463355,176 720.061629,175.422341 719.000132,174.472331 C717.939252,175.421978 716.537128,176 715,176 L691,176 C689.463355,176 688.061629,175.422341 687.000132,174.472331 C685.939252,175.421978 684.537128,176 683,176 L659,176 C657.463355,176 656.061629,175.422341 655.000132,174.472331 C653.939252,175.421978 652.537128,176 651,176 L641,176 C637.686292,176 635,173.313708 635,170 L635,146 C635,142.686292 637.686292,140 641,140 L651,140 Z M747,144 L723,144 C721.895431,144 721,144.895431 721,146 L721,170 C721,171.104569 721.895431,172 723,172 L747,172 C748.104569,172 749,171.104569 749,170 L749,146 C749,144.895431 748.104569,144 747,144 Z M715,144 L691,144 C689.895431,144 689,144.895431 689,146 L689,170 C689,171.104569 689.895431,172 691,172 L715,172 C716.104569,172 717,171.104569 717,170 L717,146 C717,144.895431 716.104569,144 715,144 Z M651,144 L641,144 C639.895431,144 639,144.895431 639,146 L639,170 C639,171.104569 639.895431,172 641,172 L651,172 C652.104569,172 653,171.104569 653,170 L653,146 C653,144.895431 652.104569,144 651,144 Z M683,144 L659,144 C657.895431,144 657,144.895431 657,146 L657,170 C657,171.104569 657.895431,172 659,172 L683,172 C684.104569,172 685,171.104569 685,170 L685,146 C685,144.895431 684.104569,144 683,144 Z M779,144 L755,144 C753.895431,144 753,144.895431 753,146 L753,170 C753,171.104569 753.895431,172 755,172 L779,172 C780.104569,172 781,171.104569 781,170 L781,146 C781,144.895431 780.104569,144 779,144 Z M811,144 L787,144 C785.895431,144 785,144.895431 785,146 L785,170 C785,171.104569 785.895431,172 787,172 L811,172 C812.104569,172 813,171.104569 813,170 L813,146 C813,144.895431 812.104569,144 811,144 Z M795,148 L795,168 L789,168 L789,148 L795,148 Z M661,162 L666,166 L666,168 L661,168 L661,162 Z M681,162 L681,168 L676,168 L676,166 L681,162 Z M809,148 L809,168 L803,168 L803,148 L809,148 Z M777,162 L777,166 C777,167.104569 776.104569,168 775,168 L759,168 C757.895431,168 757,167.104569 757,166 L757,162 L777,162 Z M681,152 L681,158 L674,158 L674,168 L668,168 L668,158 L661,158 L661,152 L681,152 Z M745,148 L745,163 L739,157 L738,157 L738,161 L745,168 L725,168 L732,161 L732,157 L731,157 L725,163 L725,148 L745,148 Z M705.308344,148 C707.982901,148 708.952759,148.278477 709.930537,148.801398 C710.908315,149.324319 711.675681,150.091685 712.198602,151.069463 C712.721523,152.047241 713,153.017099 713,155.691656 L713,160.308344 L712.994671,160.918385 C712.953879,163.138129 712.679689,164.030982 712.198602,164.930537 C711.675681,165.908315 710.908315,166.675681 709.930537,167.198602 C708.952759,167.721523 707.982901,168 705.308344,168 L700.691656,168 C698.017099,168 697.047241,167.721523 696.069463,167.198602 C695.091685,166.675681 694.324319,165.908315 693.801398,164.930537 C693.299394,163.99187 693.022669,163.060502 693.001335,160.621218 L693,155.691656 C693,153.017099 693.278477,152.047241 693.801398,151.069463 C694.324319,150.091685 695.091685,149.324319 696.069463,148.801398 C697.00813,148.299394 697.939498,148.022669 700.378782,148.001335 L705.308344,148 Z M651,165 L651,167 L649,167 L649,165 L651,165 Z M643,165 L643,167 L641,167 L641,165 L643,165 Z M646,151 L650,154 L650,162 L646,165 L642,162 L642,154 L646,151 Z M802,157 L802,161 L799,164 L796,161 L796,157 L799,160 L802,157 Z M700.845828,152 C699.50855,152 699.02362,152.139238 698.534731,152.400699 C698.045843,152.66216 697.66216,153.045843 697.400699,153.534731 L697.308414,153.719552 C697.121019,154.126841 697.015715,154.602178 697.001628,155.604868 L697,160.154172 C697,161.49145 697.139238,161.97638 697.400699,162.465269 C697.66216,162.954157 698.045843,163.33784 698.534731,163.599301 L698.719552,163.691586 C699.158171,163.893396 699.675709,164 700.845828,164 L705.154172,164 C706.49145,164 706.97638,163.860762 707.465269,163.599301 C707.954157,163.33784 708.33784,162.954157 708.599301,162.465269 L708.691586,162.280448 C708.893396,161.841829 709,161.324291 709,160.154172 L709,155.845828 C709,154.50855 708.860762,154.02362 708.599301,153.534731 C708.33784,153.045843 707.954157,152.66216 707.465269,152.400699 L707.280448,152.308414 C706.873159,152.121019 706.397822,152.015715 705.395132,152.001628 L700.845828,152 Z M704.436115,154 C705.327634,154 705.65092,154.092826 705.976846,154.267133 C706.302772,154.44144 706.55856,154.697228 706.732867,155.023154 C706.907174,155.34908 707,155.672366 707,156.563885 L707,159.436115 C707,160.327634 706.907174,160.65092 706.732867,160.976846 C706.55856,161.302772 706.302772,161.55856 705.976846,161.732867 C705.65092,161.907174 705.327634,162 704.436115,162 L701.563885,162 C700.672366,162 700.34908,161.907174 700.023154,161.732867 C699.697228,161.55856 699.44144,161.302772 699.267133,160.976846 C699.106234,160.675991 699.014763,160.377386 699.001643,159.632023 L699,156.563885 C699,155.672366 699.092826,155.34908 699.267133,155.023154 C699.44144,154.697228 699.697228,154.44144 700.023154,154.267133 C700.324009,154.106234 700.622614,154.014763 701.367977,154.001643 L704.436115,154 Z M771,156 L771,160 L757,160 L757,156 L771,156 Z M802,148 L802,155 L799,158 L796,155 L796,148 L799,151 L802,148 Z M775,148 C776.104569,148 777,148.895431 777,150 L777,154 L757,154 L757,150 C757,148.895431 757.895431,148 759,148 L775,148 Z M643,149 L643,151 L641,151 L641,149 L643,149 Z M651,149 L651,151 L649,151 L649,149 L651,149 Z M681,148 L681,150 L661,150 L661,148 L681,148 Z" transform="translate(-635 -140)"/></svg>