<svg xmlns="http://www.w3.org/2000/svg" xmlns:xlink="http://www.w3.org/1999/xlink" width="39" height="44" viewBox="0 0 39 44"><defs><linearGradient id="a" x1="50%" x2="50%" y1="0%" y2="100%"><stop offset="0%" stop-color="#FFD78F"/><stop offset="15.023%" stop-color="#FF880E"/><stop offset="52.51%" stop-color="#F70200"/><stop offset="100%" stop-color="#AC4610"/></linearGradient><linearGradient id="c" x1="50%" x2="50%" y1="0%" y2="100%"><stop offset="0%" stop-color="#FFF" stop-opacity=".12"/><stop offset="50.215%" stop-color="#FFF" stop-opacity=".618"/><stop offset="51.358%" stop-color="#FFF" stop-opacity="0"/><stop offset="100%" stop-color="#FFF" stop-opacity=".5"/></linearGradient><polygon id="b" points="19 0 15 3 15 11 19 14 23 11 23 3"/></defs><g fill="none"><path fill="url(#a)" d="M24.5,32.25 L10,32.25 L13.5,37.5 L9.5,37.5 L6,32.25 L0,32.25 L0,28.75 L15,28.75 L17.75,25.5 L38.75,25.5 L35.25,32.25 L27.75,32.25 L24.25,40.5 L29,40.5 L27.5,44 L6.5,44 L8,40.5 L12,40.5 L13.5,37.5 L17.75,37.5 L16.25,40.5 L21,40.5 L24.5,32.25 Z M8,13.5 L12,15.5 L12,18 L27.5,18 L29,21.5 L12,21.5 L12,26 L5,26 L5,21.5 L1.5,21.5 L3,18 L5,18 L5,13.5 L8,13.5 Z"/><use xlink:href="#b" fill="#00B1FF"/><use xlink:href="#b" fill="url(#c)" fill-opacity=".5"/></g></svg>