<svg xmlns="http://www.w3.org/2000/svg" width="168" height="66" viewBox="0 0 168 66"><path d="M670.195,428.008 L660.201,428.008 L656.211,429.984 L656.211,438.002 L654.197,441.992 L656.211,441.992 L656.211,455.976 L660.201,454 L660.201,441.992 L668.181,441.992 L668.181,438.002 L660.201,438.002 L660.201,431.998 L668.181,431.998 L670.195,428.008 Z M652.183,458.066 L652.183,431.998 L648.193,434.012 L648.193,438.002 L646.179,441.992 L648.193,441.992 L648.193,460.042 L652.183,458.066 Z M689.689,428.008 L676.921,427.97 L675.325,431.238 L671.715,433.024 L671.715,454 L684.483,454 L686.079,450.77 L689.689,448.946 L689.689,428.008 Z M685.699,450.39 L675.705,450.39 L675.705,442.79 L677.567,439.522 L675.705,438.458 L675.705,431.618 L685.699,431.618 L685.699,438.306 L684.103,441.004 L685.699,441.916 L685.699,450.39 Z M712.451,452.746 L705.687,439.104 L709.449,437.242 L709.449,428.008 L698.391,428.008 L694.401,429.946 L694.401,438.192 L692.805,441.004 L694.401,441.954 L694.401,454 L698.391,454 L698.391,431.618 L705.421,431.618 L705.421,438.952 L702.001,440.662 L708.879,454.532 L712.451,452.746 Z M733.313,435.152 L724.915,435.152 L723.281,438.8 L729.323,438.8 L729.323,450.39 L719.329,450.39 L719.329,431.618 L729.513,431.618 L731.299,428.008 L720.545,428.008 L718.949,431.238 L715.339,433.062 L715.339,454 L728.145,454 L729.703,450.77 L733.313,448.946 L733.313,435.152 Z M752.047,428.008 L742.053,428.008 L738.063,429.984 L738.063,438.382 L736.087,442.372 L738.063,442.372 L738.063,454 L750.071,454 L751.895,450.39 L742.053,450.39 L742.053,442.372 L750.071,442.372 L750.071,438.762 L742.053,438.762 L742.053,431.618 L750.261,431.618 L752.047,428.008 Z M780.5,442.25 L766,442.25 L769.5,447.5 L765.5,447.5 L762,442.25 L756,442.25 L756,438.75 L771,438.75 L773.75,435.5 L794.75,435.5 L791.25,442.25 L783.75,442.25 L780.25,450.5 L785,450.5 L783.5,454 L762.5,454 L764,450.5 L768,450.5 L769.5,447.5 L773.75,447.5 L772.25,450.5 L777,450.5 L780.5,442.25 Z M764,423.5 L768,425.5 L768,428 L783.5,428 L785,431.5 L768,431.5 L768,436 L761,436 L761,431.5 L757.5,431.5 L759,428 L761,428 L761,423.5 L764,423.5 Z M798,438 L803,438 L803,442 L796,442 L798,438 Z M635,438 L644,438 L642,442 L635,442 L635,438 Z M789,395 L789,415 L783,415 L783,395 L789,395 Z M675,409 L675,415 L670,415 L670,413 L675,409 Z M803,395 L803,415 L797,415 L797,395 L803,395 Z M655,409 L660,413 L660,415 L655,415 L655,409 Z M771,409 L771,413 C771,414.104569 770.104569,415 769,415 L753,415 C751.895431,415 751,414.104569 751,413 L751,409 L771,409 Z M675,399 L675,405 L668,405 L668,415 L662,415 L662,405 L655,405 L655,399 L675,399 Z M739,395 L739,410 L733,404 L732,404 L732,408 L739,415 L719,415 L726,408 L726,404 L725,404 L719,410 L719,395 L739,395 Z M699.308344,395 C701.982901,395 702.952759,395.278477 703.930537,395.801398 C704.908315,396.324319 705.675681,397.091685 706.198602,398.069463 C706.721523,399.047241 707,400.017099 707,402.691656 L707,407.308344 L706.994671,407.918385 C706.953879,410.138129 706.679689,411.030982 706.198602,411.930537 C705.675681,412.908315 704.908315,413.675681 703.930537,414.198602 C702.952759,414.721523 701.982901,415 699.308344,415 L694.691656,415 C692.017099,415 691.047241,414.721523 690.069463,414.198602 C689.091685,413.675681 688.324319,412.908315 687.801398,411.930537 C687.299394,410.99187 687.022669,410.060502 687.001335,407.621218 L687,402.691656 C687,400.017099 687.278477,399.047241 687.801398,398.069463 C688.324319,397.091685 689.091685,396.324319 690.069463,395.801398 C691.00813,395.299394 691.939498,395.022669 694.378782,395.001335 L699.308344,395 Z M796,404 L796,408 L793,411 L790,408 L790,404 L793,407 L796,404 Z M694.845828,399 C693.50855,399 693.02362,399.139238 692.534731,399.400699 C692.045843,399.66216 691.66216,400.045843 691.400699,400.534731 L691.308414,400.719552 C691.121019,401.126841 691.015715,401.602178 691.001628,402.604868 L691,407.154172 C691,408.49145 691.139238,408.97638 691.400699,409.465269 C691.66216,409.954157 692.045843,410.33784 692.534731,410.599301 L692.719552,410.691586 C693.158171,410.893396 693.675709,411 694.845828,411 L699.154172,411 C700.49145,411 700.97638,410.860762 701.465269,410.599301 C701.954157,410.33784 702.33784,409.954157 702.599301,409.465269 L702.691586,409.280448 C702.893396,408.841829 703,408.324291 703,407.154172 L703,402.845828 C703,401.50855 702.860762,401.02362 702.599301,400.534731 C702.33784,400.045843 701.954157,399.66216 701.465269,399.400699 L701.280448,399.308414 C700.873159,399.121019 700.397822,399.015715 699.395132,399.001628 L694.845828,399 Z M698.436115,401 C699.327634,401 699.65092,401.092826 699.976846,401.267133 C700.302772,401.44144 700.55856,401.697228 700.732867,402.023154 C700.907174,402.34908 701,402.672366 701,403.563885 L701,406.436115 C701,407.327634 700.907174,407.65092 700.732867,407.976846 C700.55856,408.302772 700.302772,408.55856 699.976846,408.732867 C699.65092,408.907174 699.327634,409 698.436115,409 L695.563885,409 C694.672366,409 694.34908,408.907174 694.023154,408.732867 C693.697228,408.55856 693.44144,408.302772 693.267133,407.976846 C693.106234,407.675991 693.014763,407.377386 693.001643,406.632023 L693,403.563885 C693,402.672366 693.092826,402.34908 693.267133,402.023154 C693.44144,401.697228 693.697228,401.44144 694.023154,401.267133 C694.324009,401.106234 694.622614,401.014763 695.367977,401.001643 L698.436115,401 Z M765,403 L765,407 L751,407 L751,403 L765,403 Z M796,395 L796,402 L793,405 L790,402 L790,395 L793,398 L796,395 Z M769,395 C770.104569,395 771,395.895431 771,397 L771,401 L751,401 L751,397 C751,395.895431 751.895431,395 753,395 L769,395 Z M675,395 L675,397 L655,397 L655,395 L675,395 Z M645,412 L645,414 L643,414 L643,412 L645,412 Z M637,412 L637,414 L635,414 L635,412 L637,412 Z M640,398 L644,401 L644,409 L640,412 L636,409 L636,401 L640,398 Z M637,396 L637,398 L635,398 L635,396 L637,396 Z M645,396 L645,398 L643,398 L643,396 L645,396 Z" transform="translate(-635 -395)"/></svg>