<svg xmlns="http://www.w3.org/2000/svg" width="182" height="36" viewBox="0 0 182 36"><path fill="#FFF" d="M396,272 C397.537128,272 398.939252,272.578022 400.000869,273.528565 C401.061629,272.577659 402.463355,272 404,272 L428,272 C429.537128,272 430.939252,272.578022 432.000869,273.528565 C433.061629,272.577659 434.463355,272 436,272 L460,272 C461.537128,272 462.939252,272.578022 464.000869,273.528565 C465.061629,272.577659 466.463355,272 468,272 L492,272 C493.537128,272 494.939252,272.578022 496.000869,273.528565 C497.061629,272.577659 498.463355,272 500,272 L524,272 C525.537128,272 526.939252,272.578022 528.000869,273.528565 C529.061629,272.577659 530.463355,272 532,272 L556,272 C559.313708,272 562,274.686292 562,278 L562,302 C562,305.313708 559.313708,308 556,308 L532,308 C530.463355,308 529.061629,307.422341 528.000132,306.472331 C526.939252,307.421978 525.537128,308 524,308 L500,308 C498.463355,308 497.061629,307.422341 496.000132,306.472331 C494.939252,307.421978 493.537128,308 492,308 L468,308 C466.463355,308 465.061629,307.422341 464.000132,306.472331 C462.939252,307.421978 461.537128,308 460,308 L436,308 C434.463355,308 433.061629,307.422341 432.000132,306.472331 C430.939252,307.421978 429.537128,308 428,308 L404,308 C402.463355,308 401.061629,307.422341 400.000132,306.472331 C398.939252,307.421978 397.537128,308 396,308 L386,308 C382.686292,308 380,305.313708 380,302 L380,278 C380,274.686292 382.686292,272 386,272 L396,272 Z M492,276 L468,276 C466.895431,276 466,276.895431 466,278 L466,302 C466,303.104569 466.895431,304 468,304 L492,304 C493.104569,304 494,303.104569 494,302 L494,278 C494,276.895431 493.104569,276 492,276 Z M460,276 L436,276 C434.895431,276 434,276.895431 434,278 L434,302 C434,303.104569 434.895431,304 436,304 L460,304 C461.104569,304 462,303.104569 462,302 L462,278 C462,276.895431 461.104569,276 460,276 Z M396,276 L386,276 C384.895431,276 384,276.895431 384,278 L384,302 C384,303.104569 384.895431,304 386,304 L396,304 C397.104569,304 398,303.104569 398,302 L398,278 C398,276.895431 397.104569,276 396,276 Z M428,276 L404,276 C402.895431,276 402,276.895431 402,278 L402,302 C402,303.104569 402.895431,304 404,304 L428,304 C429.104569,304 430,303.104569 430,302 L430,278 C430,276.895431 429.104569,276 428,276 Z M524,276 L500,276 C498.895431,276 498,276.895431 498,278 L498,302 C498,303.104569 498.895431,304 500,304 L524,304 C525.104569,304 526,303.104569 526,302 L526,278 C526,276.895431 525.104569,276 524,276 Z M556,276 L532,276 C530.895431,276 530,276.895431 530,278 L530,302 C530,303.104569 530.895431,304 532,304 L556,304 C557.104569,304 558,303.104569 558,302 L558,278 C558,276.895431 557.104569,276 556,276 Z M540,280 L540,300 L534,300 L534,280 L540,280 Z M406,294 L411,298 L411,300 L406,300 L406,294 Z M426,294 L426,300 L421,300 L421,298 L426,294 Z M554,280 L554,300 L548,300 L548,280 L554,280 Z M522,294 L522,298 C522,299.104569 521.104569,300 520,300 L504,300 C502.895431,300 502,299.104569 502,298 L502,294 L522,294 Z M426,284 L426,290 L419,290 L419,300 L413,300 L413,290 L406,290 L406,284 L426,284 Z M490,280 L490,295 L484,289 L483,289 L483,293 L490,300 L470,300 L477,293 L477,289 L476,289 L470,295 L470,280 L490,280 Z M450.308344,280 C452.982901,280 453.952759,280.278477 454.930537,280.801398 C455.908315,281.324319 456.675681,282.091685 457.198602,283.069463 C457.721523,284.047241 458,285.017099 458,287.691656 L458,292.308344 L457.994671,292.918385 C457.953879,295.138129 457.679689,296.030982 457.198602,296.930537 C456.675681,297.908315 455.908315,298.675681 454.930537,299.198602 C453.952759,299.721523 452.982901,300 450.308344,300 L445.691656,300 C443.017099,300 442.047241,299.721523 441.069463,299.198602 C440.091685,298.675681 439.324319,297.908315 438.801398,296.930537 C438.299394,295.99187 438.022669,295.060502 438.001335,292.621218 L438,287.691656 C438,285.017099 438.278477,284.047241 438.801398,283.069463 C439.324319,282.091685 440.091685,281.324319 441.069463,280.801398 C442.00813,280.299394 442.939498,280.022669 445.378782,280.001335 L450.308344,280 Z M396,297 L396,299 L394,299 L394,297 L396,297 Z M388,297 L388,299 L386,299 L386,297 L388,297 Z M391,283 L395,286 L395,294 L391,297 L387,294 L387,286 L391,283 Z M547,289 L547,293 L544,296 L541,293 L541,289 L544,292 L547,289 Z M445.845828,284 C444.50855,284 444.02362,284.139238 443.534731,284.400699 C443.045843,284.66216 442.66216,285.045843 442.400699,285.534731 L442.308414,285.719552 C442.121019,286.126841 442.015715,286.602178 442.001628,287.604868 L442,292.154172 C442,293.49145 442.139238,293.97638 442.400699,294.465269 C442.66216,294.954157 443.045843,295.33784 443.534731,295.599301 L443.719552,295.691586 C444.158171,295.893396 444.675709,296 445.845828,296 L450.154172,296 C451.49145,296 451.97638,295.860762 452.465269,295.599301 C452.954157,295.33784 453.33784,294.954157 453.599301,294.465269 L453.691586,294.280448 C453.893396,293.841829 454,293.324291 454,292.154172 L454,287.845828 C454,286.50855 453.860762,286.02362 453.599301,285.534731 C453.33784,285.045843 452.954157,284.66216 452.465269,284.400699 L452.280448,284.308414 C451.873159,284.121019 451.397822,284.015715 450.395132,284.001628 L445.845828,284 Z M449.436115,286 C450.327634,286 450.65092,286.092826 450.976846,286.267133 C451.302772,286.44144 451.55856,286.697228 451.732867,287.023154 C451.907174,287.34908 452,287.672366 452,288.563885 L452,291.436115 C452,292.327634 451.907174,292.65092 451.732867,292.976846 C451.55856,293.302772 451.302772,293.55856 450.976846,293.732867 C450.65092,293.907174 450.327634,294 449.436115,294 L446.563885,294 C445.672366,294 445.34908,293.907174 445.023154,293.732867 C444.697228,293.55856 444.44144,293.302772 444.267133,292.976846 C444.106234,292.675991 444.014763,292.377386 444.001643,291.632023 L444,288.563885 C444,287.672366 444.092826,287.34908 444.267133,287.023154 C444.44144,286.697228 444.697228,286.44144 445.023154,286.267133 C445.324009,286.106234 445.622614,286.014763 446.367977,286.001643 L449.436115,286 Z M516,288 L516,292 L502,292 L502,288 L516,288 Z M547,280 L547,287 L544,290 L541,287 L541,280 L544,283 L547,280 Z M520,280 C521.104569,280 522,280.895431 522,282 L522,286 L502,286 L502,282 C502,280.895431 502.895431,280 504,280 L520,280 Z M388,281 L388,283 L386,283 L386,281 L388,281 Z M396,281 L396,283 L394,283 L394,281 L396,281 Z M426,280 L426,282 L406,282 L406,280 L426,280 Z" transform="translate(-380 -272)"/></svg>