<svg xmlns="http://www.w3.org/2000/svg" width="39" height="31" viewBox="0 0 39 31">
	<style>
		@media (prefers-color-scheme: dark) {
			path {
				fill: white;
			}
		}
	</style>
	<path d="M323.5,93.25 L309,93.25 L312.5,98.5 L308.5,98.5 L305,93.25 L299,93.25 L299,89.75 L314,89.75 L316.75,86.5 L337.75,86.5 L334.25,93.25 L326.75,93.25 L323.25,101.5 L328,101.5 L326.5,105 L305.5,105 L307,101.5 L311,101.5 L312.5,98.5 L316.75,98.5 L315.25,101.5 L320,101.5 L323.5,93.25 Z M307,74.5 L311,76.5 L311,79 L326.5,79 L328,82.5 L311,82.5 L311,87 L304,87 L304,82.5 L300.5,82.5 L302,79 L304,79 L304,74.5 L307,74.5 Z" transform="translate(-299 -74)"/>
</svg>