<svg xmlns="http://www.w3.org/2000/svg" xmlns:xlink="http://www.w3.org/1999/xlink" width="168" height="66" viewBox="0 0 168 66"><defs><linearGradient id="a" x1="50%" x2="50%" y1="0%" y2="100%"><stop offset="0%" stop-color="#FFD78F"/><stop offset="15.023%" stop-color="#FF880E"/><stop offset="52.51%" stop-color="#F70200"/><stop offset="100%" stop-color="#AC4610"/></linearGradient><linearGradient id="c" x1="100%" x2="0%" y1="50%" y2="50%"><stop offset="0%" stop-color="#F00EBC"/><stop offset="100%" stop-color="#3AC9FF"/></linearGradient><linearGradient id="d" x1="50%" x2="50%" y1="0%" y2="100%"><stop offset="0%" stop-color="#FFF" stop-opacity=".12"/><stop offset="50.215%" stop-color="#FFF" stop-opacity=".618"/><stop offset="51.358%" stop-color="#FFF" stop-opacity="0"/><stop offset="100%" stop-color="#FFF" stop-opacity=".5"/></linearGradient><path id="b" d="M154,0 L154,20 L148,20 L148,0 L154,0 Z M40,14 L40,20 L35,20 L35,18 L40,14 Z M168,0 L168,20 L162,20 L162,0 L168,0 Z M20,14 L25,18 L25,20 L20,20 L20,14 Z M136,14 L136,18 C136,19.1045695 135.104569,20 134,20 L118,20 C116.895431,20 116,19.1045695 116,18 L116,14 L136,14 Z M40,4 L40,10 L33,10 L33,20 L27,20 L27,10 L20,10 L20,4 L40,4 Z M104,0 L104,15 L98,9 L97,9 L97,13 L104,20 L84,20 L91,13 L91,9 L90,9 L84,15 L84,0 L104,0 Z M64.3083444,0 C66.9829006,0 67.9527593,0.278476833 68.9305371,0.801398111 C69.9083149,1.32431939 70.6756806,2.09168511 71.1986019,3.06946289 C71.7215232,4.04724067 72,5.01709938 72,7.6916556 L72,12.3083444 L71.9946707,12.9183846 C71.9538793,15.1381287 71.6796895,16.0309816 71.1986019,16.9305371 C70.6756806,17.9083149 69.9083149,18.6756806 68.9305371,19.1986019 C67.9527593,19.7215232 66.9829006,20 64.3083444,20 L59.6916556,20 C57.0170994,20 56.0472407,19.7215232 55.0694629,19.1986019 C54.0916851,18.6756806 53.3243194,17.9083149 52.8013981,16.9305371 C52.2993937,15.9918704 52.0226693,15.060502 52.0013345,12.6212182 L52,7.6916556 C52,5.01709938 52.2784768,4.04724067 52.8013981,3.06946289 C53.3243194,2.09168511 54.0916851,1.32431939 55.0694629,0.801398111 C56.0081296,0.299393685 56.939498,0.0226692578 59.3787818,0.00133451073 L64.3083444,0 Z M161,9 L161,13 L158,16 L155,13 L155,9 L158,12 L161,9 Z M59.8458278,4 C58.5085497,4 58.0236203,4.13923842 57.5347314,4.40069906 C57.0458426,4.66215969 56.6621597,5.04584256 56.4006991,5.53473144 L56.3084137,5.71955165 C56.1210194,6.1268407 56.0157149,6.60217799 56.0016275,7.60486756 L56,12.1541722 C56,13.4914503 56.1392384,13.9763797 56.4006991,14.4652686 C56.6621597,14.9541574 57.0458426,15.3378403 57.5347314,15.5993009 L57.7195517,15.6915863 C58.1581706,15.8933956 58.6757095,16 59.8458278,16 L64.1541722,16 C65.4914503,16 65.9763797,15.8607616 66.4652686,15.5993009 C66.9541574,15.3378403 67.3378403,14.9541574 67.5993009,14.4652686 L67.6915863,14.2804483 C67.8933956,13.8418294 68,13.3242905 68,12.1541722 L68,7.8458278 C68,6.50854969 67.8607616,6.02362033 67.5993009,5.53473144 C67.3378403,5.04584256 66.9541574,4.66215969 66.4652686,4.40069906 L66.2804483,4.30841372 C65.8731593,4.12101936 65.397822,4.01571494 64.3951324,4.00162755 L59.8458278,4 Z M63.4361148,6 C64.3276335,6 64.6509198,6.09282561 64.9768457,6.2671327 C65.3027716,6.4414398 65.5585602,6.69722837 65.7328673,7.0231543 C65.9071744,7.34908022 66,7.67236646 66,8.5638852 L66,11.4361148 C66,12.3276335 65.9071744,12.6509198 65.7328673,12.9768457 C65.5585602,13.3027716 65.3027716,13.5585602 64.9768457,13.7328673 C64.6509198,13.9071744 64.3276335,14 63.4361148,14 L60.5638852,14 C59.6723665,14 59.3490802,13.9071744 59.0231543,13.7328673 C58.6972284,13.5585602 58.4414398,13.3027716 58.2671327,12.9768457 C58.1062338,12.675991 58.014763,12.3773855 58.0016426,11.6320228 L58,8.5638852 C58,7.67236646 58.0928256,7.34908022 58.2671327,7.0231543 C58.4414398,6.69722837 58.6972284,6.4414398 59.0231543,6.2671327 C59.324009,6.10623385 59.6226145,6.014763 60.3679772,6.00164263 L63.4361148,6 Z M130,8 L130,12 L116,12 L116,8 L130,8 Z M161,0 L161,7 L158,10 L155,7 L155,0 L158,3 L161,0 Z M134,0 C135.104569,0 136,0.8954305 136,2 L136,6 L116,6 L116,2 C116,0.8954305 116.895431,0 118,0 L134,0 Z M40,0 L40,2 L20,2 L20,0 L40,0 Z M10,17 L10,19 L8,19 L8,17 L10,17 Z M2,17 L2,19 L0,19 L0,17 L2,17 Z M5,3 L9,6 L9,14 L5,17 L1,14 L1,6 L5,3 Z M2,1 L2,3 L0,3 L0,1 L2,1 Z M10,1 L10,3 L8,3 L8,1 L10,1 Z"/></defs><g fill="none"><path fill="url(#a)" d="M35.195,33.008 L25.201,33.008 L21.211,34.984 L21.211,43.002 L19.197,46.992 L21.211,46.992 L21.211,60.976 L25.201,59 L25.201,46.992 L33.181,46.992 L33.181,43.002 L25.201,43.002 L25.201,36.998 L33.181,36.998 L35.195,33.008 Z M17.183,63.066 L17.183,36.998 L13.193,39.012 L13.193,43.002 L11.179,46.992 L13.193,46.992 L13.193,65.042 L17.183,63.066 Z M54.689,33.008 L41.921,32.97 L40.325,36.238 L36.715,38.024 L36.715,59 L49.483,59 L51.079,55.77 L54.689,53.946 L54.689,33.008 Z M50.699,55.39 L40.705,55.39 L40.705,47.79 L42.567,44.522 L40.705,43.458 L40.705,36.618 L50.699,36.618 L50.699,43.306 L49.103,46.004 L50.699,46.916 L50.699,55.39 Z M77.451,57.746 L70.687,44.104 L74.449,42.242 L74.449,33.008 L63.391,33.008 L59.401,34.946 L59.401,43.192 L57.805,46.004 L59.401,46.954 L59.401,59 L63.391,59 L63.391,36.618 L70.421,36.618 L70.421,43.952 L67.001,45.662 L73.879,59.532 L77.451,57.746 Z M98.313,40.152 L89.915,40.152 L88.281,43.8 L94.323,43.8 L94.323,55.39 L84.329,55.39 L84.329,36.618 L94.513,36.618 L96.299,33.008 L85.545,33.008 L83.949,36.238 L80.339,38.062 L80.339,59 L93.145,59 L94.703,55.77 L98.313,53.946 L98.313,40.152 Z M117.047,33.008 L107.053,33.008 L103.063,34.984 L103.063,43.382 L101.087,47.372 L103.063,47.372 L103.063,59 L115.071,59 L116.895,55.39 L107.053,55.39 L107.053,47.372 L115.071,47.372 L115.071,43.762 L107.053,43.762 L107.053,36.618 L115.261,36.618 L117.047,33.008 Z M145.5,47.25 L131,47.25 L134.5,52.5 L130.5,52.5 L127,47.25 L121,47.25 L121,43.75 L136,43.75 L138.75,40.5 L159.75,40.5 L156.25,47.25 L148.75,47.25 L145.25,55.5 L150,55.5 L148.5,59 L127.5,59 L129,55.5 L133,55.5 L134.5,52.5 L138.75,52.5 L137.25,55.5 L142,55.5 L145.5,47.25 Z M129,28.5 L133,30.5 L133,33 L148.5,33 L150,36.5 L133,36.5 L133,41 L126,41 L126,36.5 L122.5,36.5 L124,33 L126,33 L126,28.5 L129,28.5 Z M163,43 L168,43 L168,47 L161,47 L163,43 Z M0,43 L9,43 L7,47 L0,47 L0,43 Z"/><use xlink:href="#b" fill="url(#c)"/><use xlink:href="#b" fill="url(#d)" fill-opacity=".5"/></g></svg>