<svg xmlns="http://www.w3.org/2000/svg" width="182" height="36" viewBox="0 0 182 36"><path d="M656,290 C657.537128,290 658.939252,290.578022 660.000869,291.528565 C661.061629,290.577659 662.463355,290 664,290 L688,290 C689.537128,290 690.939252,290.578022 692.000869,291.528565 C693.061629,290.577659 694.463355,290 696,290 L720,290 C721.537128,290 722.939252,290.578022 724.000869,291.528565 C725.061629,290.577659 726.463355,290 728,290 L752,290 C753.537128,290 754.939252,290.578022 756.000869,291.528565 C757.061629,290.577659 758.463355,290 760,290 L784,290 C785.537128,290 786.939252,290.578022 788.000869,291.528565 C789.061629,290.577659 790.463355,290 792,290 L816,290 C819.313708,290 822,292.686292 822,296 L822,320 C822,323.313708 819.313708,326 816,326 L792,326 C790.463355,326 789.061629,325.422341 788.000132,324.472331 C786.939252,325.421978 785.537128,326 784,326 L760,326 C758.463355,326 757.061629,325.422341 756.000132,324.472331 C754.939252,325.421978 753.537128,326 752,326 L728,326 C726.463355,326 725.061629,325.422341 724.000132,324.472331 C722.939252,325.421978 721.537128,326 720,326 L696,326 C694.463355,326 693.061629,325.422341 692.000132,324.472331 C690.939252,325.421978 689.537128,326 688,326 L664,326 C662.463355,326 661.061629,325.422341 660.000132,324.472331 C658.939252,325.421978 657.537128,326 656,326 L646,326 C642.686292,326 640,323.313708 640,320 L640,296 C640,292.686292 642.686292,290 646,290 L656,290 Z M752,294 L728,294 C726.895431,294 726,294.895431 726,296 L726,320 C726,321.104569 726.895431,322 728,322 L752,322 C753.104569,322 754,321.104569 754,320 L754,296 C754,294.895431 753.104569,294 752,294 Z M720,294 L696,294 C694.895431,294 694,294.895431 694,296 L694,320 C694,321.104569 694.895431,322 696,322 L720,322 C721.104569,322 722,321.104569 722,320 L722,296 C722,294.895431 721.104569,294 720,294 Z M656,294 L646,294 C644.895431,294 644,294.895431 644,296 L644,320 C644,321.104569 644.895431,322 646,322 L656,322 C657.104569,322 658,321.104569 658,320 L658,296 C658,294.895431 657.104569,294 656,294 Z M688,294 L664,294 C662.895431,294 662,294.895431 662,296 L662,320 C662,321.104569 662.895431,322 664,322 L688,322 C689.104569,322 690,321.104569 690,320 L690,296 C690,294.895431 689.104569,294 688,294 Z M784,294 L760,294 C758.895431,294 758,294.895431 758,296 L758,320 C758,321.104569 758.895431,322 760,322 L784,322 C785.104569,322 786,321.104569 786,320 L786,296 C786,294.895431 785.104569,294 784,294 Z M816,294 L792,294 C790.895431,294 790,294.895431 790,296 L790,320 C790,321.104569 790.895431,322 792,322 L816,322 C817.104569,322 818,321.104569 818,320 L818,296 C818,294.895431 817.104569,294 816,294 Z M800,298 L800,318 L794,318 L794,298 L800,298 Z M666,312 L671,316 L671,318 L666,318 L666,312 Z M686,312 L686,318 L681,318 L681,316 L686,312 Z M814,298 L814,318 L808,318 L808,298 L814,298 Z M782,312 L782,316 C782,317.104569 781.104569,318 780,318 L764,318 C762.895431,318 762,317.104569 762,316 L762,312 L782,312 Z M686,302 L686,308 L679,308 L679,318 L673,318 L673,308 L666,308 L666,302 L686,302 Z M750,298 L750,313 L744,307 L743,307 L743,311 L750,318 L730,318 L737,311 L737,307 L736,307 L730,313 L730,298 L750,298 Z M710.308344,298 C712.982901,298 713.952759,298.278477 714.930537,298.801398 C715.908315,299.324319 716.675681,300.091685 717.198602,301.069463 C717.721523,302.047241 718,303.017099 718,305.691656 L718,310.308344 L717.994671,310.918385 C717.953879,313.138129 717.679689,314.030982 717.198602,314.930537 C716.675681,315.908315 715.908315,316.675681 714.930537,317.198602 C713.952759,317.721523 712.982901,318 710.308344,318 L705.691656,318 C703.017099,318 702.047241,317.721523 701.069463,317.198602 C700.091685,316.675681 699.324319,315.908315 698.801398,314.930537 C698.299394,313.99187 698.022669,313.060502 698.001335,310.621218 L698,305.691656 C698,303.017099 698.278477,302.047241 698.801398,301.069463 C699.324319,300.091685 700.091685,299.324319 701.069463,298.801398 C702.00813,298.299394 702.939498,298.022669 705.378782,298.001335 L710.308344,298 Z M656,315 L656,317 L654,317 L654,315 L656,315 Z M648,315 L648,317 L646,317 L646,315 L648,315 Z M651,301 L655,304 L655,312 L651,315 L647,312 L647,304 L651,301 Z M807,307 L807,311 L804,314 L801,311 L801,307 L804,310 L807,307 Z M705.845828,302 C704.50855,302 704.02362,302.139238 703.534731,302.400699 C703.045843,302.66216 702.66216,303.045843 702.400699,303.534731 L702.308414,303.719552 C702.121019,304.126841 702.015715,304.602178 702.001628,305.604868 L702,310.154172 C702,311.49145 702.139238,311.97638 702.400699,312.465269 C702.66216,312.954157 703.045843,313.33784 703.534731,313.599301 L703.719552,313.691586 C704.158171,313.893396 704.675709,314 705.845828,314 L710.154172,314 C711.49145,314 711.97638,313.860762 712.465269,313.599301 C712.954157,313.33784 713.33784,312.954157 713.599301,312.465269 L713.691586,312.280448 C713.893396,311.841829 714,311.324291 714,310.154172 L714,305.845828 C714,304.50855 713.860762,304.02362 713.599301,303.534731 C713.33784,303.045843 712.954157,302.66216 712.465269,302.400699 L712.280448,302.308414 C711.873159,302.121019 711.397822,302.015715 710.395132,302.001628 L705.845828,302 Z M709.436115,304 C710.327634,304 710.65092,304.092826 710.976846,304.267133 C711.302772,304.44144 711.55856,304.697228 711.732867,305.023154 C711.907174,305.34908 712,305.672366 712,306.563885 L712,309.436115 C712,310.327634 711.907174,310.65092 711.732867,310.976846 C711.55856,311.302772 711.302772,311.55856 710.976846,311.732867 C710.65092,311.907174 710.327634,312 709.436115,312 L706.563885,312 C705.672366,312 705.34908,311.907174 705.023154,311.732867 C704.697228,311.55856 704.44144,311.302772 704.267133,310.976846 C704.106234,310.675991 704.014763,310.377386 704.001643,309.632023 L704,306.563885 C704,305.672366 704.092826,305.34908 704.267133,305.023154 C704.44144,304.697228 704.697228,304.44144 705.023154,304.267133 C705.324009,304.106234 705.622614,304.014763 706.367977,304.001643 L709.436115,304 Z M776,306 L776,310 L762,310 L762,306 L776,306 Z M807,298 L807,305 L804,308 L801,305 L801,298 L804,301 L807,298 Z M780,298 C781.104569,298 782,298.895431 782,300 L782,304 L762,304 L762,300 C762,298.895431 762.895431,298 764,298 L780,298 Z M648,299 L648,301 L646,301 L646,299 L648,299 Z M656,299 L656,301 L654,301 L654,299 L656,299 Z M686,298 L686,300 L666,300 L666,298 L686,298 Z" transform="translate(-640 -290)"/></svg>