<svg xmlns="http://www.w3.org/2000/svg" xmlns:xlink="http://www.w3.org/1999/xlink" width="182" height="36" viewBox="0 0 182 36"><defs><linearGradient id="b" x1="100%" x2="0%" y1="50%" y2="50%"><stop offset="0%" stop-color="#F00EBC"/><stop offset="100%" stop-color="#3AC9FF"/></linearGradient><linearGradient id="c" x1="50%" x2="50%" y1="0%" y2="100%"><stop offset="0%" stop-color="#FFF" stop-opacity=".12"/><stop offset="50.215%" stop-color="#FFF" stop-opacity=".618"/><stop offset="51.358%" stop-color="#FFF" stop-opacity="0"/><stop offset="100%" stop-color="#FFF" stop-opacity=".5"/></linearGradient><path id="a" d="M160,8 L160,28 L154,28 L154,8 L160,8 Z M46,22 L46,28 L41,28 L41,26 L46,22 Z M174,8 L174,28 L168,28 L168,8 L174,8 Z M26,22 L31,26 L31,28 L26,28 L26,22 Z M142,22 L142,26 C142,27.1045695 141.104569,28 140,28 L124,28 C122.895431,28 122,27.1045695 122,26 L122,22 L142,22 Z M46,12 L46,18 L39,18 L39,28 L33,28 L33,18 L26,18 L26,12 L46,12 Z M110,8 L110,23 L104,17 L103,17 L103,21 L110,28 L90,28 L97,21 L97,17 L96,17 L90,23 L90,8 L110,8 Z M70.3083444,8 C72.9829006,8 73.9527593,8.27847683 74.9305371,8.80139811 C75.9083149,9.32431939 76.6756806,10.0916851 77.1986019,11.0694629 C77.7215232,12.0472407 78,13.0170994 78,15.6916556 L78,20.3083444 L77.9946707,20.9183846 C77.9538793,23.1381287 77.6796895,24.0309816 77.1986019,24.9305371 C76.6756806,25.9083149 75.9083149,26.6756806 74.9305371,27.1986019 C73.9527593,27.7215232 72.9829006,28 70.3083444,28 L65.6916556,28 C63.0170994,28 62.0472407,27.7215232 61.0694629,27.1986019 C60.0916851,26.6756806 59.3243194,25.9083149 58.8013981,24.9305371 C58.2993937,23.9918704 58.0226693,23.060502 58.0013345,20.6212182 L58,15.6916556 C58,13.0170994 58.2784768,12.0472407 58.8013981,11.0694629 C59.3243194,10.0916851 60.0916851,9.32431939 61.0694629,8.80139811 C62.0081296,8.29939368 62.939498,8.02266926 65.3787818,8.00133451 L70.3083444,8 Z M16,25 L16,27 L14,27 L14,25 L16,25 Z M8,25 L8,27 L6,27 L6,25 L8,25 Z M11,11 L15,14 L15,22 L11,25 L7,22 L7,14 L11,11 Z M167,17 L167,21 L164,24 L161,21 L161,17 L164,20 L167,17 Z M65.8458278,12 C64.5085497,12 64.0236203,12.1392384 63.5347314,12.4006991 C63.0458426,12.6621597 62.6621597,13.0458426 62.4006991,13.5347314 L62.3084137,13.7195517 C62.1210194,14.1268407 62.0157149,14.602178 62.0016275,15.6048676 L62,20.1541722 C62,21.4914503 62.1392384,21.9763797 62.4006991,22.4652686 C62.6621597,22.9541574 63.0458426,23.3378403 63.5347314,23.5993009 L63.7195517,23.6915863 C64.1581706,23.8933956 64.6757095,24 65.8458278,24 L70.1541722,24 C71.4914503,24 71.9763797,23.8607616 72.4652686,23.5993009 C72.9541574,23.3378403 73.3378403,22.9541574 73.5993009,22.4652686 L73.6915863,22.2804483 C73.8933956,21.8418294 74,21.3242905 74,20.1541722 L74,15.8458278 C74,14.5085497 73.8607616,14.0236203 73.5993009,13.5347314 C73.3378403,13.0458426 72.9541574,12.6621597 72.4652686,12.4006991 L72.2804483,12.3084137 C71.8731593,12.1210194 71.397822,12.0157149 70.3951324,12.0016275 L65.8458278,12 Z M69.4361148,14 C70.3276335,14 70.6509198,14.0928256 70.9768457,14.2671327 C71.3027716,14.4414398 71.5585602,14.6972284 71.7328673,15.0231543 C71.9071744,15.3490802 72,15.6723665 72,16.5638852 L72,19.4361148 C72,20.3276335 71.9071744,20.6509198 71.7328673,20.9768457 C71.5585602,21.3027716 71.3027716,21.5585602 70.9768457,21.7328673 C70.6509198,21.9071744 70.3276335,22 69.4361148,22 L66.5638852,22 C65.6723665,22 65.3490802,21.9071744 65.0231543,21.7328673 C64.6972284,21.5585602 64.4414398,21.3027716 64.2671327,20.9768457 C64.1062338,20.675991 64.014763,20.3773855 64.0016426,19.6320228 L64,16.5638852 C64,15.6723665 64.0928256,15.3490802 64.2671327,15.0231543 C64.4414398,14.6972284 64.6972284,14.4414398 65.0231543,14.2671327 C65.324009,14.1062338 65.6226145,14.014763 66.3679772,14.0016426 L69.4361148,14 Z M136,16 L136,20 L122,20 L122,16 L136,16 Z M167,8 L167,15 L164,18 L161,15 L161,8 L164,11 L167,8 Z M140,8 C141.104569,8 142,8.8954305 142,10 L142,14 L122,14 L122,10 C122,8.8954305 122.895431,8 124,8 L140,8 Z M8,9 L8,11 L6,11 L6,9 L8,9 Z M16,9 L16,11 L14,11 L14,9 L16,9 Z M46,8 L46,10 L26,10 L26,8 L46,8 Z"/></defs><g fill="none"><path fill="#D7D3CF" d="M16,0 C17.5371282,0 18.939252,0.57802245 20.0008689,1.52856479 C21.0616288,0.577659428 22.4633546,0 24,0 L48,0 C49.5371282,0 50.939252,0.57802245 52.0008689,1.52856479 C53.0616288,0.577659428 54.4633546,0 56,0 L80,0 C81.5371282,0 82.939252,0.57802245 84.0008689,1.52856479 C85.0616288,0.577659428 86.4633546,0 88,0 L112,0 C113.537128,0 114.939252,0.57802245 116.000869,1.52856479 C117.061629,0.577659428 118.463355,0 120,0 L144,0 C145.537128,0 146.939252,0.57802245 148.000869,1.52856479 C149.061629,0.577659428 150.463355,0 152,0 L176,0 C179.313708,0 182,2.6862915 182,6 L182,30 C182,33.3137085 179.313708,36 176,36 L152,36 C150.463355,36 149.061629,35.4223406 148.000132,34.4723307 C146.939252,35.4219775 145.537128,36 144,36 L120,36 C118.463355,36 117.061629,35.4223406 116.000132,34.4723307 C114.939252,35.4219775 113.537128,36 112,36 L88,36 C86.4633546,36 85.0616288,35.4223406 84.0001315,34.4723307 C82.939252,35.4219775 81.5371282,36 80,36 L56,36 C54.4633546,36 53.0616288,35.4223406 52.0001315,34.4723307 C50.939252,35.4219775 49.5371282,36 48,36 L24,36 C22.4633546,36 21.0616288,35.4223406 20.0001315,34.4723307 C18.939252,35.4219775 17.5371282,36 16,36 L6,36 C2.6862915,36 0,33.3137085 0,30 L0,6 C0,2.6862915 2.6862915,0 6,0 L16,0 Z M176,4 L152,4 C150.895431,4 150,4.8954305 150,6 L150,30 C150,31.1045695 150.895431,32 152,32 L176,32 C177.104569,32 178,31.1045695 178,30 L178,6 C178,4.8954305 177.104569,4 176,4 Z M144,4 L120,4 C118.895431,4 118,4.8954305 118,6 L118,30 C118,31.1045695 118.895431,32 120,32 L144,32 C145.104569,32 146,31.1045695 146,30 L146,6 C146,4.8954305 145.104569,4 144,4 Z M48,4 L24,4 C22.8954305,4 22,4.8954305 22,6 L22,30 C22,31.1045695 22.8954305,32 24,32 L48,32 C49.1045695,32 50,31.1045695 50,30 L50,6 C50,4.8954305 49.1045695,4 48,4 Z M16,4 L6,4 C4.8954305,4 4,4.8954305 4,6 L4,30 C4,31.1045695 4.8954305,32 6,32 L16,32 C17.1045695,32 18,31.1045695 18,30 L18,6 C18,4.8954305 17.1045695,4 16,4 Z M80,4 L56,4 C54.8954305,4 54,4.8954305 54,6 L54,30 C54,31.1045695 54.8954305,32 56,32 L80,32 C81.1045695,32 82,31.1045695 82,30 L82,6 C82,4.8954305 81.1045695,4 80,4 Z M112,4 L88,4 C86.8954305,4 86,4.8954305 86,6 L86,30 C86,31.1045695 86.8954305,32 88,32 L112,32 C113.104569,32 114,31.1045695 114,30 L114,6 C114,4.8954305 113.104569,4 112,4 Z"/><use xlink:href="#a" fill="url(#b)"/><use xlink:href="#a" fill="url(#c)" fill-opacity=".5"/></g></svg>