<svg xmlns="http://www.w3.org/2000/svg" width="29" height="29" viewBox="0 0 29 29"><path fill-rule="evenodd" d="M28.3476864,14.1344829 L28.0889888,14.3931805 C26.6602414,15.8219279 24.3412103,15.8193541 22.9092879,14.3874317 L22.3907429,13.8688867 L15.7335912,20.5260384 L16.7706812,21.5631283 C18.4889881,23.2814352 18.4920767,26.0642725 16.7775798,27.7787694 L15.9497475,28.6066017 L9.58578644,22.2426407 L4.62425386,27.180603 L0.393398282,28.6066017 L1.79582673,24.3521759 L6.75735931,19.4142136 L0.393398282,13.0502525 L1.22123061,12.2224202 C2.9357275,10.5079233 5.7185648,10.5110119 7.43687168,12.2293188 L8.47396163,13.2664088 L15.1311133,6.6092571 L14.6125683,6.09071213 C13.1806459,4.65878973 13.1780721,2.33975865 14.6068195,0.911011238 L14.8655171,0.652313635 L28.3476864,14.1344829 Z"/></svg>