<svg xmlns="http://www.w3.org/2000/svg" width="78" height="29" viewBox="0 0 78 29"><path fill-rule="evenodd" d="M55.3476864,14.1344829 L55.0889888,14.3931805 C53.6602414,15.8219279 51.3412103,15.8193541 49.9092879,14.3874317 L49.3907429,13.8688867 L42.7335912,20.5260384 L43.7706812,21.5631283 C45.4889881,23.2814352 45.4920767,26.0642725 43.7775798,27.7787694 L42.9497475,28.6066017 L36.5857864,22.2426407 L31.6242539,27.180603 L27.3933983,28.6066017 L28.7958267,24.3521759 L33.7573593,19.4142136 L27.3933983,13.0502525 L28.2212306,12.2224202 C29.9357275,10.5079233 32.7185648,10.5110119 34.4368717,12.2293188 L35.4739616,13.2664088 L42.1311133,6.6092571 L41.6125683,6.09071213 C40.1806459,4.65878973 40.1780721,2.33975865 41.6068195,0.911011238 L41.8655171,0.652313635 L55.3476864,14.1344829 Z M62,20 L70,12 L78,20 L62,20 Z M0,20 L8,12 L16,20 L0,20 Z"/></svg>